<?xml version="1.0" encoding="utf-8"?>
<!-- Generator: Adobe Illustrator 16.0.0, SVG Export Plug-In . SVG Version: 6.00 Build 0)  -->
<!DOCTYPE svg PUBLIC "-//W3C//DTD SVG 1.1//EN" "http://www.w3.org/Graphics/SVG/1.1/DTD/svg11.dtd">
<svg version="1.1" id="Layer_1" xmlns="http://www.w3.org/2000/svg" xmlns:xlink="http://www.w3.org/1999/xlink" x="0px" y="0px"
	 width="100px" height="100px" viewBox="0 0 100 100" enable-background="new 0 0 100 100" xml:space="preserve">
<path fill="none" stroke="#000000" stroke-width="4" stroke-miterlimit="10" d="M30.027,8.376c5.956,0.018,11.08,2.149,15.419,6.175
	c1.502,1.393,2.936,2.872,4.302,4.401c0.709,0.795,1.05,0.658,1.634-0.107c0.892-1.167,1.862-2.286,2.884-3.345
	c6.649-6.899,17.103-9.023,26.047-5.324c8.699,3.599,14.729,12.709,14.656,22.054c-0.052,6.628-2.439,12.306-6.898,17.127
	C83.027,54.811,77.546,59.82,72.244,65.01c-6.51,6.367-13.047,12.704-19.571,19.059c-1.923,1.871-2.523,1.894-4.429,0.037
	c-10.94-10.643-21.891-21.276-32.802-31.947c-3.914-3.828-7.196-8.111-8.666-13.507C2.553,23.13,13.911,8.358,30.027,8.376z"/>
<g>
	<path d="M86.255,33.588c-0.772-1.229-1.524-2.491-2.343-3.71c-3.9-5.817-10.743-8.563-17.445-7.023
		c-6.775,1.558-12.023,7.24-13.08,14.009c-0.586,3.763,0.201,7.178,2.111,10.415c1.496,2.545,2.473,5.188,1.734,8.247
		c-0.859,3.584-2.614,5.07-6.332,5.057c-3.359-0.014-6.323-1.331-9.194-2.884c-0.011-0.382,0.267-0.415,0.504-0.493
		c5.809-1.98,8.297-5.336,8.375-11.492c0.043-3.417-0.107-6.831,0.588-10.217c1.226-5.959,3.834-11.105,8.685-14.923
		c6.289-4.951,15.08-4.876,21.283,0.185c3.893,3.175,5.629,7.351,5.43,12.348c-0.006,0.142-0.063,0.283-0.113,0.419
		C86.445,33.552,86.359,33.554,86.255,33.588z"/>
	<path d="M15.463,34.824c-0.468-6.977,2.3-12.216,8.273-15.682c6.003-3.483,11.993-3.172,17.71,0.579
		c5.567,3.653,8.028,8.944,7.399,15.689c-2.867-7.662-7.825-12.669-16.425-12.79C23.845,22.5,18.584,27.166,15.463,34.824z"/>
	<path d="M62.329,46.521c0.198-0.025,0.428-0.129,0.596-0.063c1.435,0.547,2.537,0.007,3.953-0.481
		c2.003-0.687,4.554-1.293,6.625,0.455c0.546,0.463,1.106,0.529,1.752,0.354c0.478-0.129,0.931-0.443,1.806-0.176
		c-2.063,1.272-3.642,2.814-5.633,3.729c-1.527,0.705-3.146,0.601-4.453-0.493C65.527,48.641,64.117,47.43,62.329,46.521z"/>
	<path d="M82.832,34.593c-0.373,2.092-0.902,2.476-2.646,1.935c-0.896-0.277-1.601-0.581-1.584,0.854
		c0.006,0.638-0.521,1.005-1.197,1c-0.678-0.007-1.271-0.213-1.465-0.941c-0.104-0.393-0.088-0.82-0.135-1.293
		c-1.492,0.016-3.408,1.738-4.337-1.208c2.198,0.792,4.21-0.226,6.281-0.004c0.674,0.074,1.388-0.031,1.991,0.306
		C80.889,35.884,81.736,35.12,82.832,34.593z"/>
	<path d="M56.951,35.182c3.025,0.496,6.056-0.679,9.037,0.179c0.688,0.201,1.201-0.179,1.703-0.588
		c0.168-0.139,0.377-0.463,0.629-0.118c0.115,0.154,0.248,0.467,0.18,0.55c-0.598,0.715-1.027,1.993-2.225,1.466
		c-1.301-0.568-1.994-0.057-2.648,0.887c-0.641,0.928-1.227,0.769-1.716-0.103c-0.646-1.142-1.483-1.383-2.646-0.776
		C57.777,37.452,57.688,35.814,56.951,35.182z"/>
	<path d="M43.596,36.969c-0.946-0.293-1.789-0.553-2.637-0.815c-0.4,0.313-0.167,0.778-0.291,1.154
		c-0.357,1.082-1.298,1.444-1.987,0.575c-0.906-1.149-1.691-2.059-3.251-1.092c-0.252,0.156-0.687-0.008-0.775-0.334
		c-0.046-0.169,0.184-0.473,0.364-0.635c1.383-1.245,6.944-1.232,8.301-0.002C43.622,36.095,43.69,36.421,43.596,36.969z"/>
	<path d="M19.882,36.351c2.289-1.735,6.376-2.03,8.629-0.681c0.328,0.195,0.708,0.396,0.58,0.813
		c-0.147,0.465-0.594,0.298-0.931,0.221c-0.403-0.095-0.817-0.198-1.19-0.373c-0.612-0.285-0.825-0.093-0.858,0.541
		c-0.046,0.856-0.319,1.576-1.366,1.54c-0.996-0.034-1.319-0.658-1.338-1.568c-0.021-0.941-0.586-0.794-1.191-0.553
		C21.504,36.575,20.795,37.031,19.882,36.351z"/>
	<path d="M32.283,49.652c-2.297,0.008-3.994-0.555-5.307-2.019c-0.222-0.243-0.588-0.575-0.275-0.952
		c0.349-0.425,0.679-0.006,0.947,0.172c2.945,1.965,5.863,2.002,8.791-0.045c0.364-0.254,0.899-0.654,1.233-0.121
		c0.268,0.433-0.333,0.694-0.622,0.951C35.591,48.945,33.918,49.734,32.283,49.652z"/>
	<path d="M82.063,31.629c-3.213-0.574-6.429-0.659-9.641,0.022C75.195,29.37,79.068,29.367,82.063,31.629z"/>
	<path d="M58.42,31.935c-0.07-0.862,0.262-1.113,0.648-1.281c2.601-1.116,5.177-1.12,7.707,0.229
		c0.271,0.146,0.602,0.26,0.514,0.668c-0.057,0.26-0.27,0.308-0.48,0.229C64.027,30.745,61.229,30.691,58.42,31.935z"/>
	<path d="M44.174,31.588c-1.953,0.442-3.362-0.743-4.997-0.687c-1.598,0.051-3.023,1.057-4.833,0.831
		C36.999,29.39,40.747,29.328,44.174,31.588z"/>
	<path d="M20.245,31.421c2.741-1.787,5.561-2.049,8.492-0.553c0.298,0.152,0.799,0.251,0.545,0.752
		c-0.153,0.301-0.553,0.328-0.844,0.191c-2.543-1.198-5.073-1.039-7.611,0.016C20.649,31.899,20.412,31.809,20.245,31.421z"/>
</g>
<path opacity="0.2" fill="none" stroke="#000000" stroke-width="4" stroke-miterlimit="10" enable-background="new    " d="
	M58.52,97c-1.951-1.896-3.897-3.795-5.847-5.691c-1.923-1.871-2.522-1.894-4.429-0.037c-1.963,1.91-3.927,3.819-5.891,5.729H58.52z"
	/>
</svg>
