<?xml version="1.0" encoding="utf-8"?>
<!-- Generator: Adobe Illustrator 16.0.0, SVG Export Plug-In . SVG Version: 6.00 Build 0)  -->
<!DOCTYPE svg PUBLIC "-//W3C//DTD SVG 1.1//EN" "http://www.w3.org/Graphics/SVG/1.1/DTD/svg11.dtd">
<svg version="1.1" id="Layer_1" xmlns="http://www.w3.org/2000/svg" xmlns:xlink="http://www.w3.org/1999/xlink" x="0px" y="0px"
	 width="100px" height="100px" viewBox="0 0 100 100" enable-background="new 0 0 100 100" xml:space="preserve">
<path fill="none" stroke="#000000" stroke-width="3" stroke-miterlimit="10" d="M39.842,62.493c-7.114,0-14.228,0.004-21.342-0.002
	c-3.185-0.003-3.959-0.726-3.966-3.817c-0.019-7.921-0.021-15.841,0.001-23.762c0.008-3.013,0.783-3.76,3.785-3.761
	c14.448-0.006,28.896-0.006,43.345,0c3,0.001,3.585,0.59,3.588,3.59c0.006,8.067,0.007,16.135-0.001,24.202
	c-0.003,2.971-0.59,3.543-3.628,3.548C54.363,62.499,47.103,62.494,39.842,62.493z"/>
<path fill="none" stroke="#000000" stroke-width="3" stroke-miterlimit="10" d="M27.124,4.871
	c6.642,0.003,11.811,5.17,11.769,11.768c-0.042,6.535-5.325,11.734-11.91,11.719c-6.606-0.015-11.676-5.174-11.656-11.862
	C15.347,9.762,20.314,4.869,27.124,4.871z"/>
<path fill="none" stroke="#000000" stroke-width="3" stroke-miterlimit="10" d="M52.95,4.871
	c6.718,0.001,11.761,5.033,11.751,11.723c-0.01,6.622-5.168,11.767-11.793,11.763c-6.597-0.004-11.764-5.191-11.761-11.804
	C41.151,9.907,46.24,4.87,52.95,4.871z"/>
<path fill="none" stroke="#000000" stroke-width="3" stroke-miterlimit="10" d="M88.331,31.356c0,10.477,0,20.49,0,30.883
	c-1.5-0.552-2.705-0.983-3.903-1.438c-4.789-1.8-9.561-3.646-14.371-5.387c-1.699-0.614-2.404-1.625-2.355-3.438
	c0.091-3.512-0.065-7.03,0.088-10.538c0.041-0.939,0.607-2.394,1.313-2.682C75.313,36.229,81.613,33.908,88.331,31.356z"/>
<path fill="none" stroke="#000000" stroke-width="3" stroke-miterlimit="10" d="M39.32,64.991c-0.408,0.946-0.59,1.487-0.862,1.979
	c-3.859,6.98-7.779,13.93-11.569,20.948c-1.077,1.994-2.74,2.046-4.495,1.792c-1.603-0.229-0.866-1.37-0.54-2.203
	c2.266-5.788,4.497-11.592,6.852-17.345c2.515-6.144,1.021-5.062,7.583-5.171C37.158,64.979,38.026,64.991,39.32,64.991z"/>
<path fill="none" stroke="#000000" stroke-width="3" stroke-miterlimit="10" d="M60.87,89.307c-3.579,0.996-4.627,0.604-6.129-2.095
	c-3.735-6.71-7.461-13.425-11.184-20.142c-0.279-0.506-0.5-1.043-0.937-1.965c2.823,0,5.398-0.041,7.97,0.049
	c0.362,0.012,0.855,0.607,1.028,1.039C54.707,73.837,57.754,81.496,60.87,89.307z"/>
<path opacity="0.2" fill="none" stroke="#000000" stroke-width="3" stroke-miterlimit="10" enable-background="new    " d="
	M22.787,98.75h5.639c-0.511-0.934-1.031-1.861-1.537-2.799c-1.077-1.994-2.74-2.047-4.495-1.792c-1.603,0.229-0.866,1.37-0.54,2.202
	C22.166,97.158,22.476,97.954,22.787,98.75z"/>
<path opacity="0.2" fill="none" stroke="#000000" stroke-width="3" stroke-miterlimit="10" enable-background="new    " d="
	M59.2,98.75c0.558-1.396,1.108-2.777,1.67-4.186c-3.579-0.996-4.627-0.604-6.129,2.095c-0.388,0.696-0.773,1.396-1.161,2.091H59.2z"
	/>
</svg>
