<?xml version="1.0" encoding="utf-8"?>
<!-- Generator: Adobe Illustrator 16.0.0, SVG Export Plug-In . SVG Version: 6.00 Build 0)  -->
<!DOCTYPE svg PUBLIC "-//W3C//DTD SVG 1.1//EN" "http://www.w3.org/Graphics/SVG/1.1/DTD/svg11.dtd">
<svg version="1.1" id="Layer_1" xmlns="http://www.w3.org/2000/svg" xmlns:xlink="http://www.w3.org/1999/xlink" x="0px" y="0px"
	 width="100px" height="100px" viewBox="0 0 100 100" enable-background="new 0 0 100 100" xml:space="preserve">
<g>
	<path stroke="#000000" stroke-miterlimit="10" d="M52.822,51.934c-0.16-1.693-0.295-3.399-0.57-5.081
		c-0.802-4.88-1.468-9.802-3.817-14.273c-1.278-2.427-2.755-4.66-5.23-6.054c-1.481-0.836-2.025-0.813-3.305,0.294
		c-0.021-1.062-0.645-1.31-1.56-1.302c-3.38,0.027-6.761,0.038-10.142-0.005c-0.961-0.015-1.628,0.202-1.735,1.096
		c-0.525-0.238-1.07-0.715-1.509-0.634c-0.903,0.168-1.95,0.427-2.579,1.024c-1.436,1.372-2.907,2.827-3.902,4.52
		c-1.123,1.911-1.81,4.097-2.562,6.207c-1.1,3.087-1.347,6.356-1.813,9.572c-0.23,1.595-0.379,3.205-0.516,4.812
		c-0.045,0.543,0.106,1.104,0.089,1.648c-0.03,1.164-0.313,2.36-0.126,3.479c0.236,1.396,1.336,2.234,2.719,2.48
		c2.268,0.404,4.021-1.009,4.208-3.313c0.09-1.125,0.094-2.258,0.213-3.381c0.311-2.931,0.663-5.853,1-8.774
		c0.104,0.011,0.208,0.021,0.311,0.033c-0.785,9.866-1.569,19.733-2.346,29.528c0.1,0.703,0.147,1.414,0.137,2.127
		c0.119-0.019,0.231-0.028,0.372-0.063c0.247-0.063,0.55,0.091,0.814,0.144c0,0.285,0.011,0.469-0.003,0.647
		c-0.208,2.703-0.42,5.403-0.628,8.104c-0.213,2.778,1.314,4.957,3.915,5.59c2.548,0.619,5.437-0.961,5.875-3.506
		c0.451-2.629,0.533-5.321,0.78-7.986c0.043-0.475,0.098-0.946,0.144-1.395c2.044-0.135,2.056-0.146,2.057-2.099
		c0.001-5.635,0.021-11.271-0.004-16.901c-0.014-2.738,0.348-5.527-1.001-8.27c1.245,0.798,1.554,0.693,2.091-0.479
		c0.235-0.516,0.504-1.017,0.76-1.521c0.044,0.494-0.067,0.925-0.269,1.306c-0.811,1.523-1.401,3.127-1.405,4.859
		c-0.032,7.276-0.021,14.558-0.015,21.838c0,0.827,0.41,1.212,1.231,1.229c0.207,0.004,0.419,0.002,0.674,0.002
		c0.038,0.279,0.083,0.516,0.102,0.75c0.185,2.43,0.358,4.857,0.555,7.287c0.124,1.536,0.612,2.86,1.937,3.85
		c1.608,1.195,3.335,1.572,5.138,0.771c2.005-0.89,3.232-2.449,3.193-4.771c-0.013-0.729-0.092-1.46-0.147-2.188
		c-0.175-2.36-0.352-4.725-0.525-7.063c1.493-0.605,1.526-0.607,1.389-2.232c-0.76-9.043-1.539-18.083-2.309-27.122
		c-0.098-1.168-0.188-2.337-0.284-3.505c0.305,0.668,0.469,1.346,0.573,2.033c0.546,3.607,0.771,7.239,0.954,10.882
		c0.106,2.17,1.776,3.748,3.83,3.646c1.675-0.084,3.771-1.474,3.501-4.053C52.948,54.466,52.939,53.193,52.822,51.934z
		 M28.172,31.124c0.045,1.661,0.015,3.346-0.218,4.988c-0.295,2.073,0.04,4.049,0.478,6.039c0.029,0.136,0.042,0.279,0.063,0.418
		c-0.999-2.129-1.292-4.361-0.838-6.645c0.569-2.856,0.438-5.609-0.883-8.25c-0.049-0.097-0.042-0.223-0.104-0.575
		C27.685,28.425,28.133,29.74,28.172,31.124z M18.277,58.527c-0.851,0.5-1.786,0.535-2.673-0.006c-1.658-1-1.417-2.559-1.216-4.311
		c1.802,0.364,3.483,0.705,5.149,1.042C19.694,56.654,19.473,57.823,18.277,58.527z M29.379,86.337
		c-0.294,3.052-4.475,4.082-6.488,2.433c-1.032-0.847-1.693-1.903-1.631-3.213c0.151-3.152,0.424-6.299,0.651-9.478
		c2.772,0.394,5.456,0.771,8.234,1.164C29.892,80.286,29.668,83.314,29.379,86.337z M32.154,54.143
		c0.079,7.277,0.042,14.562,0.042,21.838c0,0.146-0.029,0.291-0.074,0.727c-3.929-0.541-7.746-1.064-11.648-1.604
		c1.043-13.252,2.071-26.309,3.099-39.361c-1.514,2.755-2.178,5.781-2.719,8.813c-0.55,3.079-0.859,6.199-1.288,9.408
		c-1.622-0.352-3.299-0.708-5.107-1.1c0.064-0.814,0.099-1.625,0.197-2.426c0.494-4.042,0.762-8.134,2.013-12.038
		c0.703-2.19,1.478-4.399,2.568-6.411c1.105-2.041,2.606-3.895,4.854-4.879c1.018-0.446,1.321-0.261,1.806,0.761
		c1.08,2.268,1.498,4.637,0.982,7.106c-0.738,3.531-0.116,6.813,1.56,9.965c1.009,1.9,1.985,3.826,2.835,5.799
		C31.734,51.809,32.142,52.999,32.154,54.143z M29.885,45.975c0.089-0.04,0.18-0.08,0.27-0.12c0.649,1.244,1.302,2.485,1.952,3.729
		c-0.08,0.04-0.158,0.079-0.236,0.12C31.209,48.461,30.546,47.218,29.885,45.975z M33.188,49.753
		c-1.222-2.377-2.529-4.605-3.529-6.963c-0.961-2.265-1.108-4.68-0.699-7.163c0.402-2.436,0.444-4.911-0.52-7.275
		c-0.248-0.61-0.579-1.187-0.905-1.847h11.346c-0.317,0.654-0.677,1.277-0.93,1.939c-0.86,2.248-1.042,4.579-0.543,6.916
		c0.642,3.004,0.079,5.796-1.246,8.486C35.199,45.806,34.201,47.746,33.188,49.753z M38.567,39.958
		c0.05,1.893-0.83,3.477-1.798,5.035C37.367,43.315,37.967,41.639,38.567,39.958z M38.498,29.754v6.565
		C38.035,34.081,37.864,32.009,38.498,29.754z M40.147,89.509c-1.652-0.358-3.195-1.849-3.352-3.543
		c-0.26-2.784-0.432-5.58-0.637-8.37c-0.009-0.115,0.031-0.234,0.048-0.354c2.723-0.385,5.424-0.764,8.211-1.155
		c0.036,0.171,0.114,0.394,0.133,0.618c0.214,2.761,0.371,5.523,0.641,8.277C45.479,87.977,42.517,90.023,40.147,89.509z
		 M42.954,35.885c-0.086,0.011-0.172,0.023-0.26,0.034c0.168,2.117,0.325,4.235,0.507,6.35c0.514,6.034,1.044,12.066,1.561,18.099
		c0.391,4.579,0.757,9.159,1.169,13.735c0.062,0.652-0.081,0.906-0.762,1.002c-3.193,0.429-6.379,0.914-9.571,1.357
		c-0.414,0.061-0.843,0.012-1.396,0.012v-1.078c0-6.67,0.035-13.336-0.019-20.004c-0.019-2.078,0.509-3.943,1.453-5.765
		c1.112-2.141,2.217-4.293,3.167-6.507c0.914-2.135,0.939-4.42,0.786-6.725c-0.132-1.996-0.076-4.003-0.097-6.007
		c-0.001-0.151,0.013-0.31,0.062-0.451c1.224-3.532,1.77-3.965,4.789-1.464c1.974,1.638,3.169,3.889,4.07,6.203
		c2.253,5.793,3.065,11.903,3.569,18.149c-1.808,0.396-3.563,0.781-5.463,1.203C46.204,47.74,45.646,41.59,42.954,35.885z
		 M51.063,58.311c-0.937,0.64-2.045,0.75-2.993,0.188c-1.047-0.62-1.602-1.701-1.418-2.815c0.029-0.166,0.197-0.399,0.341-0.436
		c1.649-0.359,3.307-0.688,5.083-1.05C52.09,55.771,52.598,57.261,51.063,58.311z"/>
	<path stroke="#000000" stroke-miterlimit="10" d="M83.691,36.802c-0.721-2.255-2.176-4.044-3.646-5.833
		c-0.132-0.161-0.229-0.427-0.207-0.631c0.354-4.012,0.08-7.979-1.072-11.834c-0.494-1.647-1.164-3.261-1.928-4.812
		c-0.627-0.762-1.146-1.601-1.563-2.497c-0.269-0.269-0.521-0.551-0.76-0.845c-0.367-0.268-0.668-0.57-1.014-0.805
		c-2.345-1.595-4.727-1.895-7.167-0.23c-0.338,0.307-0.704,0.589-1.087,0.853c-0.505,0.559-1.048,1.085-1.678,1.533
		c-0.123,0.254-0.246,0.509-0.346,0.771c-0.656,1.715-1.641,3.31-2.232,5.043c-1.271,3.695-1.588,7.548-1.458,11.437
		c0.024,0.725,0.243,1.444,0.378,2.188c-0.732,1.076-1.645,2.192-2.301,3.441c-0.916,1.73-1.736,3.509-1.82,5.555
		c-0.055,1.31-0.497,2.601-0.572,3.911c-0.115,2.021,0.521,3.725,2.539,4.619c0.469,0.209,0.932,0.439,1.453,0.688
		c-0.785,3.703-1.197,7.416-1.088,11.164c0.092,3.227,0.209,6.457,0.568,9.658c0.442,3.984,1.14,7.939,1.744,11.905
		c0.058,0.38,0.366,0.762,0.315,1.108c-0.149,1.049-0.452,2.076-0.632,3.123c-0.041,0.248,0.104,0.617,0.285,0.795
		c0.32,0.31,0.768,0.479,1.109,0.767c0.238,0.198,0.41,0.485,0.582,0.755c0.207,0.33,0.334,0.721,0.58,1.018
		c0.608,0.732,1.366,0.898,2.358,0.914c1.397,0.022,2.573-0.24,3.61-1.149c0.457-0.402,1.724-0.411,2.168-0.021
		c2.229,1.978,5.222,1.45,6.662-1.158c0.09-0.162,0.297-0.307,0.479-0.363c0.753-0.249,1.009-0.751,0.988-1.528
		c-0.108-4.312,0.351-8.563,1.322-12.468c0.698-0.418,1.295-0.711,1.793-1.12c0.12-0.103,0.017-0.789-0.142-0.854
		c-0.396-0.176-0.879-0.152-1.378-0.213c0.064-0.576,0.146-1.281,0.202-1.762c0.559-0.105,1.028-0.109,1.393-0.313
		c0.15-0.082,0.207-0.754,0.069-0.859c-0.328-0.259-0.794-0.342-1.299-0.533c0.107-0.584-0.389-1.557,0.8-2.013
		c0.147-0.058,0.141-0.683,0.092-1.028c-0.037-0.271-0.34-0.511-0.36-0.773c-0.066-0.867-0.119-1.743-0.07-2.611
		c0.229-4.121-0.088-8.205-0.84-12.297c0.352-0.124,0.658-0.238,0.969-0.343c2.791-0.938,3.588-2.818,3.49-5.213
		c-0.082-1.957-0.535-3.899-0.859-5.843C84.061,37.649,83.83,37.235,83.691,36.802z M61.158,20.44
		c0.49-1.998,1.029-4.037,1.936-5.864c1.02-2.055,2.451-3.905,4.624-4.985c2.075-1.033,3.857-0.337,5.472,0.979
		c1.875,1.529,3.035,3.549,3.933,5.793c1.729,4.342,2.021,8.854,1.913,13.436c-0.098,0.028-0.188,0.056-0.283,0.083
		c-0.867-2.388-1.646-4.807-2.617-7.153c-1.086-2.632-2.313-5.208-3.535-7.777c-0.25-0.527-0.695-1.019-1.162-1.377
		c-1.535-1.174-2.834-1.03-3.965,0.571c-0.813,1.154-1.502,2.427-2.054,3.73c-1.13,2.684-2.123,5.426-3.19,8.138
		c-0.504,1.288-1.059,2.56-1.664,3.82C60.333,26.663,60.4,23.515,61.158,20.44z M70.438,32.693c-0.158,0.642-0.299,1.2-0.438,1.76
		c-0.163,0.005-0.329,0.009-0.495,0.012c-0.147-0.556-0.294-1.108-0.479-1.803c-1.271-0.25-2.295-1.171-3.2-2.252
		c-0.192-0.231-0.407-0.465-0.523-0.739c-0.069-0.174,0.021-0.42,0.037-0.633c0.171,0.09,0.384,0.142,0.511,0.273
		c0.571,0.605,1.057,1.326,1.701,1.834c1.896,1.484,4.473,0.882,5.7-1.235c0.21-0.364,0.537-0.656,0.813-0.983
		c0.078,0.074,0.158,0.146,0.235,0.222C74.041,30.488,72.495,31.881,70.438,32.693z M74.291,31.211
		c-0.218,1.024-1.162,1.791-2.301,1.944C72.721,32.539,73.482,31.895,74.291,31.211z M67.448,33.144
		c-0.83-0.505-2.132-0.487-2.271-1.938C65.975,31.885,66.71,32.515,67.448,33.144z M72.736,28.966
		c-0.271,0.393-0.549,0.808-0.916,1.103c-1.924,1.563-3.528,1.272-4.914-0.846c-0.148-0.229-0.282-0.47-0.461-0.677
		c-0.709-0.835-1.717-0.589-2.148,0.282c-0.965,0.333-1.729,0.597-2.604,0.898c0.644-1.578,1.261-3.094,1.892-4.642
		c3.685,4.03,9.046,3.662,12.306-0.02c0.555,1.377,1.088,2.708,1.607,3.998c-0.76-0.116-1.426-0.219-2.382-0.368
		C74.465,27.74,73.566,27.751,72.736,28.966z M63.682,23.046c1.135-2.448,2.144-4.975,3.485-7.303
		c1.58-2.735,3.478-2.778,5.097-0.067c1.406,2.356,2.409,4.954,3.569,7.453c0.074,0.153,0.062,0.441-0.041,0.568
		c-1.558,1.933-3.339,3.474-6.04,3.311c-2.71,0.167-4.492-1.378-6.052-3.304C63.588,23.565,63.596,23.229,63.682,23.046z
		 M63.477,29.926c0.188,0.359,0.445,0.683,0.521,1.045c0.373,1.859,1.721,2.647,3.342,3.184c0.457,0.153,0.937,0.341,1.306,0.639
		c0.807,0.643,1.496,0.432,2.291-0.037c0.83-0.487,1.721-0.889,2.615-1.244c0.928-0.369,1.438-1.016,1.721-1.948
		c0.197-0.662,0.526-1.283,0.801-1.919c3.947,1.675,7.506,6.644,7.304,10.265c-1.302,0.282-2.624,0.569-3.972,0.859
		c-0.358-1.08-0.688-2.074-1.02-3.068c-0.063,0.009-0.123,0.019-0.186,0.027c-0.497,1.989-0.993,3.978-1.521,6.096
		c-0.769-0.119-1.529-0.154-2.238-0.363c-1.639-0.481-3.131-0.452-4.35,0.925c-1.08-1.207-2.295-1.451-3.771-1.032
		c-1.036,0.293-2.137,0.36-3.209,0.529c-0.346-2.034-0.67-3.939-0.995-5.843c-0.103-0.013-0.204-0.027-0.31-0.038
		c-0.285,0.875-0.574,1.751-0.912,2.77c-1.388-0.3-2.791-0.604-4.319-0.933C57.771,35.714,59.318,31.97,63.477,29.926z
		 M78.857,43.432c-0.36,0.019-0.678,0.034-1.146,0.06c0.211-0.866,0.396-1.624,0.581-2.381c0.095-0.001,0.187-0.004,0.272-0.007
		C78.662,41.851,78.755,42.599,78.857,43.432z M61.471,43.415c0.053-0.696,0.104-1.369,0.17-2.27
		C62.141,42.484,62.073,43.255,61.471,43.415z M57.297,47.297c-0.465-0.268-0.926-0.953-0.967-1.482
		c-0.123-1.613-0.045-3.242-0.045-5.083c1.646,0.363,3.001,0.663,4.424,0.975c-0.096,0.818-0.184,1.563-0.286,2.455
		c0.583,0.083,1.142,0.257,1.688,0.222c1.666-0.105,3.337-0.241,4.992-0.46c1.973-0.261,3.17,1.02,2.502,2.892
		c-0.18,0.495-0.808,1.014-1.33,1.167c-2.496,0.724-5.069,1.188-7.656,0.705C59.46,48.471,58.335,47.891,57.297,47.297z
		 M60.08,49.457c7.081,0,8.389-0.247,10.148-2.012c0.25,0.524,0.414,1.019,0.703,1.43c0.326,0.468,0.694,1.05,1.178,1.227
		c0.375,0.138,0.947-0.271,1.436-0.438c0.46-0.155,0.923-0.309,1.387-0.463c0.072,0.096,0.147,0.189,0.221,0.285
		c-0.557,1.624-1.098,3.252-1.682,4.866c-1.291,3.592-2.572,7.188-3.934,10.756c-0.715,1.869-1.575,3.687-2.403,5.512
		c-0.938,2.072-1.888,4.135-2.866,6.186c-0.859,1.803-1.765,3.579-2.649,5.366l-0.343-0.017
		C59.419,71.309,57.945,60.448,60.08,49.457z M63.13,88.291c1.55,0.184,3.065,0.363,4.582,0.544
		C66.587,90.143,64.281,89.887,63.13,88.291z M71.746,88.85c1.55-0.211,3.072-0.418,4.629-0.629
		C75.354,89.85,73.082,90.152,71.746,88.85z M79.988,67.383c-0.43,3.648-1.059,7.271-1.461,10.924
		c-0.283,2.563-0.373,5.146-0.477,7.721c-0.025,0.675-0.229,0.947-0.854,1.146c-3.885,1.207-7.834,1.313-11.816,0.679
		c-1.105-0.182-2.188-0.488-3.279-0.74c-0.479-0.106-0.686-0.366-0.688-0.896c-0.021-1.377,0.137-2.635,0.861-3.896
		c1.424-2.471,2.709-5.021,3.924-7.604c1.381-2.934,2.613-5.934,3.908-8.905c0.803-1.836,1.67-3.646,2.388-5.52
		c1.282-3.375,2.478-6.784,3.707-10.181c0.063-0.168,0.135-0.332,0.225-0.557h3.255c0.232,1.849,0.523,3.733,0.694,5.626
		C80.742,59.26,80.466,63.33,79.988,67.383z M83.382,46.755c-0.198,0.316-0.485,0.616-0.798,0.818
		c-2.322,1.517-4.896,1.442-7.486,1.077c-1.02-0.143-2.033-0.365-3.022-0.635c-1.341-0.365-1.899-1.292-1.618-2.507
		c0.279-1.233,1.266-1.762,2.659-1.577c2.185,0.29,4.375,0.759,6.728,0.239c-0.087-0.843-0.162-1.59-0.256-2.483
		c1.354-0.292,2.691-0.583,4.107-0.889C84.004,42.902,84.574,44.876,83.382,46.755z"/>
	<path stroke="#000000" stroke-miterlimit="10" d="M32.829,2.687c2.184,0.091,4.999,0.917,7.536,2.625
		c0.679,0.458,1.452,0.811,2.033,1.368c1.304,1.251,2.095,2.799,1.665,4.642c-0.339,1.463-0.796,2.932-1.444,4.28
		c-0.486,1.012-0.917,1.982-1.176,3.09c-1.189,5.116-5.815,7.533-10.68,6.211c-3.665-0.994-5.766-3.893-6.013-7.785
		c-0.069-1.081-0.689-2.122-1.008-3.193c-0.563-1.886-0.817-3.789-0.391-5.757c0.344-1.586,1.276-2.745,2.532-3.653
		C27.657,3.234,29.655,2.675,32.829,2.687z M42.798,8.425c-0.531-0.552-0.878-1.077-1.36-1.39c-1.814-1.168-3.636-2.326-5.75-2.904
		c-3.146-0.858-6.215-0.887-9.045,0.977c-1.388,0.913-2.408,2.163-2.514,3.919c-0.054,0.906-0.114,1.848,0.067,2.725
		c0.332,1.602,0.841,3.169,1.299,4.836C30.064,13.355,35.363,9.919,42.798,8.425z M33.221,24.348
		c4.205-0.129,6.629-2.465,7.439-6.369c0.05-0.241-0.155-0.702-0.366-0.806c-2.226-1.091-4.547-2.009-6.693-3.232
		c-1.171-0.667-2.061-0.586-3.056,0.072c-1.543,1.02-3.08,2.052-4.603,3.104c-0.159,0.109-0.306,0.406-0.276,0.587
		c0.128,0.773,0.166,1.624,0.527,2.288C27.694,22.746,29.935,24.41,33.221,24.348z M40.694,16.761
		c1.927-2.07,2.993-5.633,2.278-7.52c-3.581,0.499-6.924,1.668-10.18,3.646C35.51,14.22,38.085,15.482,40.694,16.761z"/>
	<path stroke="#000000" stroke-miterlimit="10" d="M61.471,43.415c0.053-0.696,0.104-1.369,0.17-2.27"/>
	<path stroke="#000000" stroke-miterlimit="10" d="M33.084,29.622c1.382,1.967,1.942,3.976,2.149,6.219c-1.337,0-2.615,0-3.999,0
		C31.252,33.639,32.106,31.71,33.084,29.622z M33.369,31.779c-0.101-0.013-0.201-0.027-0.3-0.041
		c-0.313,1.055-0.625,2.109-0.952,3.216c0.786,0,1.41,0,2.188,0C33.975,33.834,33.672,32.807,33.369,31.779z"/>
	<path stroke="#000000" stroke-miterlimit="10" d="M31.226,36.659c1.359,0,2.62,0,3.962,0c-0.06,2.21-0.811,4.195-2.088,6.225
		C32.154,40.831,31.31,38.932,31.226,36.659z M33.031,40.626c0.115,0.01,0.231,0.02,0.346,0.029c0.295-0.99,0.591-1.979,0.912-3.061
		c-0.788,0-1.403,0-2.149,0C32.457,38.673,32.746,39.65,33.031,40.626z"/>
	<path stroke="#000000" stroke-miterlimit="10" d="M67.387,64.639c-0.9-0.008-1.42-0.563-1.4-1.509
		c0.02-0.923,0.592-1.569,1.404-1.582c0.904-0.013,1.623,0.683,1.635,1.588C69.039,64.105,68.449,64.646,67.387,64.639z
		 M67.454,64.002c0.31-0.398,0.662-0.678,0.614-0.838c-0.08-0.271-0.414-0.469-0.639-0.695c-0.176,0.239-0.438,0.461-0.49,0.723
		C66.909,63.368,67.186,63.602,67.454,64.002z"/>
	<path stroke="#000000" stroke-miterlimit="10" d="M63.046,71.389c0.817,0.008,1.521,0.744,1.526,1.598
		c0.008,0.854-0.695,1.568-1.538,1.568c-0.854,0-1.517-0.688-1.515-1.576C61.521,72.12,62.232,71.381,63.046,71.389z M63.029,73.934
		c0.301-0.461,0.604-0.726,0.578-0.947c-0.028-0.238-0.364-0.445-0.563-0.668c-0.202,0.225-0.526,0.43-0.562,0.675
		C62.451,73.212,62.745,73.473,63.029,73.934z"/>
	<path stroke="#000000" stroke-miterlimit="10" d="M70.693,52.055c0.877,0.01,1.625,0.764,1.617,1.629
		c-0.011,0.737-0.865,1.474-1.686,1.444c-0.744-0.026-1.413-0.761-1.384-1.519C69.279,52.723,69.908,52.046,70.693,52.055z
		 M70.741,52.747c-0.261,0.388-0.55,0.629-0.535,0.849c0.015,0.215,0.345,0.573,0.524,0.567c0.222-0.009,0.611-0.337,0.604-0.513
		C71.325,53.393,71.025,53.146,70.741,52.747z"/>
	<path stroke="#000000" stroke-miterlimit="10" d="M70.518,58.299c-0.017,0.786-0.748,1.563-1.479,1.563
		c-0.809,0.007-1.568-0.752-1.583-1.564c-0.013-0.773,0.806-1.521,1.64-1.496C69.809,56.82,70.532,57.587,70.518,58.299z
		 M69.016,57.52c-0.269,0.336-0.605,0.586-0.574,0.758c0.054,0.25,0.373,0.443,0.578,0.66c0.188-0.207,0.508-0.397,0.528-0.621
		C69.563,58.107,69.268,57.872,69.016,57.52z"/>
	<path stroke="#000000" stroke-miterlimit="10" d="M65.305,66.361c0.827,0.021,1.424,0.709,1.387,1.593
		c-0.039,0.901-0.656,1.508-1.51,1.465c-0.813-0.042-1.504-0.752-1.49-1.543C63.703,67.031,64.447,66.334,65.305,66.361z
		 M65.844,68.046c0.072-0.139,0.146-0.276,0.219-0.415c-0.263-0.117-0.553-0.367-0.783-0.318c-0.246,0.053-0.438,0.377-0.653,0.584
		c0.194,0.194,0.367,0.502,0.601,0.556C65.389,68.486,65.633,68.193,65.844,68.046z"/>
	<path stroke="#000000" stroke-miterlimit="10" d="M69.727,17.731c-0.854-0.933-0.84-2.547,0.033-3.355
		C70.607,15.296,70.593,16.894,69.727,17.731z"/>
</g>
<path stroke="#000000" stroke-miterlimit="10" d="M38.441,17.156c-0.418-0.128-0.791-0.244-1.167-0.36
	c-0.176,0.139-0.073,0.345-0.129,0.511c-0.158,0.478-0.573,0.64-0.877,0.255c-0.399-0.508-0.748-0.913-1.438-0.482
	c-0.11,0.067-0.303-0.005-0.342-0.149c-0.02-0.076,0.082-0.209,0.16-0.281c0.61-0.549,3.071-0.544,3.67,0
	C38.452,16.771,38.484,16.913,38.441,17.156z"/>
<path stroke="#000000" stroke-miterlimit="10" d="M27.959,16.882c1.011-0.766,2.819-0.897,3.814-0.3
	c0.145,0.087,0.313,0.176,0.257,0.359c-0.065,0.205-0.264,0.132-0.412,0.099c-0.178-0.042-0.363-0.088-0.526-0.166
	c-0.271-0.126-0.364-0.041-0.38,0.238c-0.02,0.379-0.141,0.697-0.604,0.682c-0.44-0.016-0.583-0.292-0.592-0.693
	c-0.008-0.417-0.258-0.353-0.525-0.246C28.675,16.982,28.364,17.183,27.959,16.882"/>
<path stroke="#000000" stroke-miterlimit="10" d="M35.55,21.874c-0.646,0.577-1.387,0.926-2.108,0.89
	c-1.018,0.002-1.768-0.244-2.348-0.893"/>
<path stroke="#000000" stroke-miterlimit="10" d="M30.972,21.45c0.154-0.188,0.302-0.003,0.419,0.076
	c1.302,0.869,2.592,0.885,3.885-0.02"/>
<path stroke="#000000" stroke-miterlimit="10" d="M67.561,23.032c0.063-0.008,0.133-0.042,0.186-0.021
	c0.438,0.178,0.777,0.001,1.214-0.156c0.615-0.223,1.396-0.419,2.034,0.147c0.168,0.15,0.34,0.172,0.539,0.113
	c0.146-0.042,0.283-0.143,0.554-0.056c-0.632,0.412-1.116,0.911-1.729,1.209c-0.467,0.229-0.965,0.195-1.364-0.16
	C68.543,23.72,68.109,23.327,67.561,23.032z"/>
<path stroke="#000000" stroke-miterlimit="10" d="M73.855,19.163c-0.111,0.679-0.277,0.804-0.813,0.629
	c-0.274-0.09-0.491-0.188-0.485,0.278c0.004,0.206-0.158,0.325-0.367,0.322c-0.209-0.001-0.391-0.068-0.446-0.305
	c-0.034-0.127-0.028-0.265-0.042-0.419c-0.458,0.006-1.049,0.563-1.333-0.391c0.676,0.256,1.293-0.074,1.93-0.002
	c0.208,0.024,0.429-0.011,0.612,0.098C73.262,19.583,73.52,19.334,73.855,19.163z"/>
<path stroke="#000000" stroke-miterlimit="10" d="M65.908,19.355c0.928,0.162,1.857-0.22,2.777,0.058
	c0.209,0.064,0.364-0.058,0.521-0.191c0.053-0.044,0.114-0.15,0.192-0.038c0.033,0.049,0.078,0.151,0.055,0.178
	c-0.184,0.231-0.313,0.646-0.684,0.476c-0.396-0.184-0.608-0.019-0.813,0.287c-0.196,0.301-0.376,0.25-0.526-0.033
	c-0.199-0.37-0.455-0.45-0.813-0.253C66.163,20.092,66.137,19.561,65.908,19.355z"/>
<g>
	<path opacity="0.2" stroke="#000000" stroke-miterlimit="10" enable-background="new    " d="M37.772,97
		c0.008-0.093,0.014-0.186,0.022-0.277c0.157-1.695,1.7-3.186,3.352-3.543c2.178-0.474,4.849,1.221,5.045,3.82h0.889
		c-0.092-2.117-1.278-3.566-3.174-4.408c-1.803-0.801-3.53-0.424-5.138,0.771c-1.263,0.941-1.761,2.191-1.913,3.637H37.772z"/>
	<path opacity="0.2" stroke="#000000" stroke-miterlimit="10" enable-background="new    " d="M22.263,97
		c-0.012-1.247,0.631-2.266,1.628-3.082c2.013-1.648,6.194-0.619,6.488,2.434c0.021,0.215,0.037,0.434,0.057,0.648h0.859
		c-0.052-0.389-0.097-0.779-0.163-1.166c-0.438-2.545-3.327-4.125-5.875-3.506c-2.306,0.563-3.761,2.339-3.915,4.672H22.263z"/>
	<path opacity="0.2" stroke="#000000" stroke-miterlimit="10" enable-background="new    " d="M62.426,97
		c-0.004-0.176-0.016-0.348-0.013-0.527c0.003-0.527,0.21-0.787,0.688-0.895c1.092-0.252,2.174-0.561,3.278-0.74
		c3.981-0.635,7.933-0.529,11.815,0.678c0.627,0.197,0.828,0.471,0.854,1.146c0.005,0.112,0.009,0.228,0.015,0.34h0.885
		c0.003-0.218-0.012-0.435-0.006-0.651c0.021-0.776-0.234-1.279-0.987-1.527c-0.183-0.059-0.39-0.201-0.479-0.363
		c-1.439-2.609-4.434-3.136-6.662-1.158c-0.443,0.391-1.711,0.381-2.168-0.021c-1.037-0.909-2.213-1.172-3.609-1.149
		c-0.992,0.017-1.75,0.183-2.357,0.914c-0.246,0.297-0.373,0.688-0.58,1.019c-0.173,0.27-0.345,0.557-0.582,0.754
		c-0.344,0.289-0.789,0.457-1.109,0.768c-0.184,0.178-0.327,0.547-0.286,0.795c0.036,0.21,0.087,0.417,0.131,0.625h1.173V97z
		 M77.375,94.467c-1.557-0.211-3.079-0.418-4.629-0.629C74.082,92.535,76.354,92.838,77.375,94.467z M68.712,93.854
		c-1.517,0.181-3.032,0.359-4.582,0.543C65.281,92.801,67.587,92.545,68.712,93.854z"/>
</g>
</svg>
