<?xml version="1.0" encoding="utf-8"?>
<!-- Generator: Adobe Illustrator 16.0.0, SVG Export Plug-In . SVG Version: 6.00 Build 0)  -->
<!DOCTYPE svg PUBLIC "-//W3C//DTD SVG 1.1//EN" "http://www.w3.org/Graphics/SVG/1.1/DTD/svg11.dtd">
<svg version="1.1" id="Layer_1" xmlns="http://www.w3.org/2000/svg" xmlns:xlink="http://www.w3.org/1999/xlink" x="0px" y="0px"
	 width="100px" height="100px" viewBox="0 0 100 100" enable-background="new 0 0 100 100" xml:space="preserve">
<path stroke="#000000" stroke-miterlimit="10" d="M8.688,84.386c0-27.016,0-54.031,0-81.045c27.443,0,54.887,0,82.333,0
	c0,27.015,0,54.03,0,81.045c-1.265,0.425-2.524,1.216-3.789,1.22c-24.92,0.072-49.837,0.072-74.757,0
	C11.211,85.602,9.95,84.811,8.688,84.386z M85.65,68.174c0-15.961,0-31.639,0-47.22c-24.063,0-47.887,0-71.658,0
	c0,15.865,0,31.473,0,47.22C37.914,68.174,61.66,68.174,85.65,68.174z M13.951,15.41c2.671,0,4.984,0,7.428,0
	c0-2.337,0-4.51,0-6.719c-2.58,0-4.969,0-7.428,0C13.951,11.01,13.951,13.106,13.951,15.41z M26.927,8.603c0,2.481,0,4.656,0,6.81
	c2.555,0,4.866,0,7.319,0c0-2.334,0-4.507,0-6.81C31.752,8.603,29.44,8.603,26.927,8.603z M39.825,8.542c0,2.281,0,4.526,0,6.809
	c2.493,0,4.881,0,7.225,0c0-2.4,0-4.574,0-6.809C44.571,8.542,42.335,8.542,39.825,8.542z M52.604,8.638c0,2.339,0,4.514,0,6.714
	c2.58,0,4.97,0,7.311,0c0-2.399,0-4.573,0-6.714C57.354,8.638,55.04,8.638,52.604,8.638z M72.77,15.456c0-2.523,0-4.696,0-6.808
	c-2.568,0-4.885,0-7.293,0c0,2.35,0,4.522,0,6.808C67.984,15.456,70.296,15.456,72.77,15.456z M78.32,8.628c0,2.482,0,4.583,0,6.734
	c2.57,0,4.959,0,7.332,0c0-2.39,0-4.563,0-6.734C83.104,8.628,80.791,8.628,78.32,8.628z M13.891,80.333c2.658,0,5.043,0,7.449,0
	c0-2.384,0-4.554,0-6.631c-2.617,0-5.002,0-7.449,0C13.891,75.986,13.891,78.007,13.891,80.333z M34.311,73.709
	c-2.739,0-5.122,0-7.45,0c0,2.373,0,4.468,0,6.617c2.565,0,4.95,0,7.45,0C34.311,78.02,34.311,75.924,34.311,73.709z M39.777,73.583
	c0,2.448,0,4.617,0,6.69c2.618,0,5.003,0,7.349,0c0-2.359,0-4.455,0-6.69C44.652,73.583,42.343,73.583,39.777,73.583z
	 M60.016,73.624c-2.683,0-4.994,0-7.397,0c0,2.356,0,4.524,0,6.676c2.593,0,4.978,0,7.397,0
	C60.016,77.968,60.016,75.869,60.016,73.624z M72.743,80.471c0-2.287,0-4.529,0-6.806c-2.483,0-4.867,0-7.218,0
	c0,2.403,0,4.574,0,6.806C68.001,80.471,70.232,80.471,72.743,80.471z M78.268,80.271c2.731,0,5.116,0,7.448,0
	c0-2.365,0-4.465,0-6.619c-2.562,0-4.946,0-7.448,0C78.268,75.959,78.268,78.055,78.268,80.271z"/>
<path stroke="#000000" stroke-miterlimit="10" d="M26.464,33.904c0.969-1.999,2.572-2.624,4.757-2.596
	c7.72,0.093,15.442,0.032,23.166,0.05c2.932,0.005,4.225,1.305,4.229,4.212c0.013,6.02,0.015,12.039,0.008,18.057
	c-0.003,2.633-1.41,4.029-4.055,4.031c-7.781,0.005-15.565-0.061-23.345,0.033c-2.191,0.025-3.787-0.592-4.758-2.588
	C26.464,48.037,26.464,40.971,26.464,33.904z"/>
<path stroke="#000000" stroke-miterlimit="10" d="M73.244,56.198c-0.696-0.022-1.584,0.224-2.063-0.112
	c-2.97-2.092-5.873-4.283-8.73-6.531c-0.475-0.373-0.605-1.181-0.893-1.789c-0.022-0.051-0.004-0.121-0.004-0.181
	c0.033-2.482-0.664-5.315,0.311-7.343c0.938-1.952,3.605-3.075,5.521-4.548c1.25-0.959,2.465-1.986,3.812-2.788
	c0.519-0.308,1.353-0.081,2.046-0.098C73.244,40.604,73.244,48.402,73.244,56.198z"/>
<g display="none">
	<path display="inline" fill="#EFC519" d="M62.607,51.016l9.185-0.56v18.228l-9.185-0.932l-0.729-0.927v-14.97L62.607,51.016z
		 M38.229,47.39h5.214v5.303H30.341c0,0-1.483,2.141-1.395,6.654c0.095,4.508,1.395,6.364,1.395,6.364h4.358l1.58,2.041h15.807
		v-1.592v-0.449V52.691h-0.928l-3.901-9.952h-0.411v-4.092h1.813v0.327c0.422,1.802,2.757,1.853,3.024,1.853h0.018l17.615-0.345
		c0.1,0,2.265-0.034,2.381-2.715v-0.843c-0.121-2.701-2.289-2.73-2.385-2.73l-17.607-0.341h-0.004c-0.291,0-2.616,0.053-3.034,1.757
		v0.417h-6.019v6.708h-4.694l-4.646-1.902h-4.995c0,0-0.62,1.204-0.565,3.732c0.055,2.528,0.565,3.608,0.565,3.608h4.897
		L38.229,47.39L38.229,47.39z M52.969,53.251h1.887l1.963-1.396H61v14.969h-4.182l-1.963-1.582h-1.887V53.244V53.251z
		 M60.448,54.171h-3.63c-0.062,0-0.121,0.011-0.172,0.042l-1.838,0.922c-0.193,0.094-0.268,0.328-0.172,0.516
		c0.063,0.137,0.2,0.214,0.342,0.214c0.061,0,0.119-0.013,0.174-0.044l1.76-0.879h3.536c0.212,0,0.385-0.174,0.385-0.387
		C60.833,54.346,60.66,54.171,60.448,54.171z M60.448,56.416h-3.632c-0.033,0-0.072,0.005-0.107,0.011l-1.838,0.548
		c-0.203,0.063-0.322,0.275-0.262,0.479c0.051,0.17,0.203,0.276,0.369,0.276c0.039,0,0.072-0.004,0.111-0.017l1.785-0.53h3.57
		c0.213,0,0.386-0.175,0.386-0.385C60.833,56.589,60.66,56.416,60.448,56.416z M54.794,63.298l1.837,1.044
		c0.059,0.035,0.126,0.053,0.191,0.053h3.627c0.211,0,0.385-0.176,0.385-0.386c0-0.211-0.174-0.383-0.385-0.383h-3.525l-1.75-1.001
		c-0.186-0.105-0.424-0.038-0.527,0.146C54.541,62.954,54.605,63.189,54.794,63.298z M54.902,61.365l1.836,0.393l3.711,0.01
		c0.211,0,0.385-0.172,0.385-0.386c0-0.211-0.174-0.384-0.385-0.384h-3.631l-1.754-0.385c-0.207-0.067-0.416,0.092-0.459,0.296
		C54.561,61.119,54.691,61.318,54.902,61.365z M54.982,59.6h5.466c0.212,0,0.385-0.173,0.385-0.384c0-0.213-0.173-0.386-0.385-0.386
		h-5.466c-0.211,0-0.383,0.172-0.383,0.386C54.6,59.427,54.77,59.6,54.982,59.6z"/>
</g>
<path opacity="0.2" stroke="#000000" stroke-miterlimit="10" enable-background="new    " d="M14.891,96.167v-3.16h7.449v3.16h5.522
	v-3.153h7.45v3.153h5.466v-3.103h7.349v3.103h5.491V93.04h7.397v3.127h5.51v-3.298h7.219v3.298h5.523v-3.099h7.448v3.099h5.306
	v-7.213c-1.265-0.425-2.524-1.216-3.789-1.22c-24.92-0.072-49.837-0.072-74.757,0c-1.263,0.004-2.524,0.795-3.786,1.22v7.213H14.891
	z"/>
</svg>
